<svg width="601" height="358" viewBox="0 0 601 358" fill="none" xmlns="http://www.w3.org/2000/svg">
<path d="M585 17C543 -41 181 73 173 85C165 97 167 107 173 120C179 133 489 173 371 193C433 254 148 303 148 333C148 363 519 366 546 333C573 300 627 75 585 17Z" fill="#47E2EC"/>
<path d="M49 193L100 144L1 193L89 260L49 193Z" fill="#47E2EC"/>
<path d="M371 193C433 254 148 303 148 333C148 363 519 366 546 333C573 300 627 75 585 17C543 -41 181 73 173 85C165 97 167 107 173 120C179 133 489 173 371 193ZM371 193C310 225 49 193 49 193M49 193L100 144L1 193L89 260L49 193Z" stroke="black"/>
</svg>
