<?xml version="1.0" standalone="no"?>
<!DOCTYPE svg PUBLIC "-//W3C//DTD SVG 20010904//EN"
 "http://www.w3.org/TR/2001/REC-SVG-20010904/DTD/svg10.dtd">
<svg version="1.0" xmlns="http://www.w3.org/2000/svg"
 width="384.000000pt" height="400.000000pt" viewBox="0 0 384.000000 400.000000"
 preserveAspectRatio="xMidYMid meet">

<g transform="translate(0.000000,400.000000) scale(0.100000,-0.100000)"
fill="#000000" stroke="none">
<path d="M1750 3547 c0 -7 7 -22 15 -33 8 -10 15 -22 15 -26 0 -13 -29 -9 -60
7 -26 14 -30 14 -30 1 0 -13 -4 -13 -29 2 -35 20 -51 10 -28 -16 22 -24 21
-32 -3 -32 -11 0 -20 7 -20 15 0 26 -21 16 -33 -16 -11 -28 -15 -30 -47 -25
-24 4 -40 0 -52 -11 -20 -18 -24 -53 -8 -69 17 -17 -15 -36 -71 -42 -61 -6
-69 -16 -29 -37 33 -17 35 -32 6 -49 -15 -9 -23 -4 -52 28 -19 22 -37 37 -40
34 -3 -3 0 -24 7 -47 10 -35 10 -43 -4 -59 -9 -10 -20 -34 -23 -53 -4 -19 -13
-44 -21 -57 -8 -13 -12 -31 -8 -39 3 -9 -3 -26 -16 -39 -26 -28 -16 -53 12
-28 18 16 19 16 19 -3 0 -11 -7 -26 -15 -33 -22 -18 -18 -30 8 -30 12 0 30 -9
40 -20 21 -24 12 -48 -29 -78 -30 -21 -42 -72 -18 -72 8 0 14 -4 14 -10 0 -5
-4 -10 -10 -10 -5 0 -10 -4 -10 -10 0 -5 7 -10 15 -10 8 0 19 -9 25 -19 6 -12
23 -21 43 -23 29 -3 32 -6 32 -38 0 -32 -2 -35 -27 -32 -35 3 -35 -8 -3 -46
14 -17 25 -42 25 -56 0 -16 9 -31 24 -41 24 -16 39 -45 50 -97 4 -16 11 -28
16 -28 11 0 13 49 14 355 1 110 5 217 10 238 16 70 57 79 301 67 87 -5 93 -4
179 34 80 35 94 38 145 32 31 -4 86 -7 123 -6 37 1 77 -1 88 -5 10 -3 36 -33
56 -66 31 -52 35 -66 30 -102 -19 -139 -19 -172 2 -222 28 -71 62 -218 62
-271 0 -54 14 -51 40 11 10 24 23 46 29 49 6 4 11 18 11 31 0 34 40 59 79 50
53 -11 58 5 15 43 l-39 34 30 -6 c17 -3 41 -9 54 -12 22 -7 23 -5 16 22 -4 16
-9 50 -9 77 -1 26 -7 52 -13 58 -12 12 0 63 18 83 13 15 11 26 -6 26 -8 0 -15
4 -15 9 0 5 7 11 15 15 17 6 21 46 5 46 -14 0 8 42 26 53 21 12 17 50 -6 65
-11 7 -20 20 -20 30 0 9 -7 30 -15 46 -20 37 -19 54 2 58 13 2 5 13 -30 42
-26 21 -47 46 -47 55 0 29 -105 108 -168 126 -90 25 -130 46 -157 81 -14 18
-25 37 -25 43 0 18 -17 21 -49 10 -23 -8 -35 -8 -46 1 -8 6 -19 9 -25 5 -7 -4
-14 2 -17 14 -5 20 -7 21 -23 6 -15 -14 -31 -15 -116 -6 -61 6 -102 7 -109 1
-8 -6 -23 -1 -45 15 -38 28 -50 31 -50 12z"/>
<path d="M1992 570 c0 -14 2 -19 5 -12 2 6 2 18 0 25 -3 6 -5 1 -5 -13z"/>
<path d="M1751 554 c0 -11 3 -14 6 -6 3 7 2 16 -1 19 -3 4 -6 -2 -5 -13z"/>
<path d="M1980 213 c0 -5 5 -15 10 -23 8 -12 10 -11 10 8 0 12 -4 22 -10 22
-5 0 -10 -3 -10 -7z"/>
<path d="M1682 25 c0 -17 2 -22 5 -12 2 9 2 23 0 30 -3 6 -5 -1 -5 -18z"/>
</g>
</svg>
